<?xml version="1.0" standalone="no"?>
<svg viewBox="0 0 200 200" xmlns="http://www.w3.org/2000/svg">
  <path fill="#D0E2FF" d="M23.1,-32.9C30,-26.7,35.9,-20.1,41.7,-11.4C47.6,-2.7,53.3,8.3,53.5,20.5C53.8,32.7,48.6,46.2,38.7,57.2C28.9,68.3,14.5,76.9,-1.9,79.5C-18.2,82.1,-36.4,78.6,-52.1,69.5C-67.8,60.3,-81.1,45.5,-83.8,29.1C-86.6,12.7,-78.9,-5.2,-72.8,-23.5C-66.7,-41.9,-62.2,-60.6,-50.3,-65.2C-38.4,-69.8,-19.2,-60.2,-5.6,-52.5C8,-44.9,16.1,-39,23.1,-32.9Z" transform="translate(100 100)" />
</svg>
