<?xml version="1.0" standalone="no"?>
<svg viewBox="0 0 200 200" xmlns="http://www.w3.org/2000/svg">
  <path fill="#D0E2FF" d="M36.3,-72C41.9,-59.6,37.8,-39.5,45.7,-26.2C53.7,-13,73.7,-6.5,81.8,4.7C90,15.9,86.4,31.8,76.5,41.7C66.5,51.6,50.3,55.3,36.5,53.8C22.8,52.3,11.4,45.4,-0.9,46.9C-13.1,48.5,-26.3,58.4,-40.2,60C-54.1,61.6,-68.8,54.9,-70.9,43.5C-72.9,32.1,-62.4,16.1,-62.8,-0.3C-63.3,-16.6,-74.7,-33.2,-72.6,-44.4C-70.5,-55.7,-54.7,-61.6,-40.4,-69C-26,-76.4,-13,-85.3,1.2,-87.3C15.3,-89.4,30.7,-84.5,36.3,-72Z" transform="translate(100 100)" />
</svg>
