<?xml version="1.0" standalone="no"?>
<svg viewBox="0 0 200 200" xmlns="http://www.w3.org/2000/svg">
  <path fill="#D0E2FF" d="M30.5,-48.4C38.3,-36.3,42.7,-25.8,45.1,-15.4C47.6,-4.9,48.1,5.4,47.4,17.9C46.8,30.3,44.9,44.8,36.8,58.2C28.7,71.6,14.4,83.9,1.9,81.4C-10.7,78.8,-21.3,61.4,-35.9,50.1C-50.5,38.8,-68.9,33.6,-76.9,21.9C-84.9,10.3,-82.4,-7.8,-75.9,-23.6C-69.4,-39.4,-58.8,-52.9,-45.5,-63.2C-32.2,-73.5,-16.1,-80.6,-2.4,-77.4C11.3,-74.1,22.6,-60.4,30.5,-48.4Z" transform="translate(100 100)" />
</svg>
